<?xml version="1.0" encoding="UTF-8" standalone="no"?>
<svg
   xmlns:dc="http://purl.org/dc/elements/1.1/"
   xmlns:cc="http://creativecommons.org/ns#"
   xmlns:rdf="http://www.w3.org/1999/02/22-rdf-syntax-ns#"
   xmlns:svg="http://www.w3.org/2000/svg"
   xmlns="http://www.w3.org/2000/svg"
   xmlns:sodipodi="http://sodipodi.sourceforge.net/DTD/sodipodi-0.dtd"
   xmlns:inkscape="http://www.inkscape.org/namespaces/inkscape"
   version="1.0"
   width="48.729118"
   height="50.036259"
   id="svg2381"
   sodipodi:version="0.32"
   inkscape:version="0.48.3.1 r9886"
   sodipodi:docname="logo_butia_vec.svg"
   inkscape:output_extension="org.inkscape.output.svg.inkscape">
  <metadata
     id="metadata3149">
    <rdf:RDF>
      <cc:Work
         rdf:about="">
        <dc:format>image/svg+xml</dc:format>
        <dc:type
           rdf:resource="http://purl.org/dc/dcmitype/StillImage" />
        <dc:title />
      </cc:Work>
    </rdf:RDF>
  </metadata>
  <defs
     id="defs3147" />
  <sodipodi:namedview
     pagecolor="#ffffff"
     bordercolor="#666666"
     borderopacity="1"
     objecttolerance="10"
     gridtolerance="10"
     guidetolerance="10"
     inkscape:pageopacity="0"
     inkscape:pageshadow="2"
     inkscape:window-width="1600"
     inkscape:window-height="822"
     id="namedview3145"
     showgrid="false"
     inkscape:zoom="13.410275"
     inkscape:cx="24.06628"
     inkscape:cy="24.280212"
     inkscape:window-x="0"
     inkscape:window-y="24"
     inkscape:window-maximized="1"
     inkscape:current-layer="layer1" />
  <g
     transform="matrix(0.89315942,0,0,0.89315942,-281.86152,-342.52147)"
     id="layer1">
    <path
       d="m 354.74583,388.98066 2.90725,2.67 3.00025,2.57625 2.51725,3.05875 2.43662,3.14125 1.20209,-0.35607 0.41241,-0.96518 -1.78493,-3.1194 -2.87532,-3.3731 -3.2459,-2.92688 -3.24872,-1.87937 -0.90944,0.36867 z m -35.33217,8.02979 0.11269,1.29373 1.14493,-0.11998 2.45905,-2.51229 2.90268,-3.15208 2.93894,-2.16042 3.02388,-2.5525 -0.29363,-1.0275 -0.88062,-0.2925 -3.61946,1.93153 -3.3639,2.8346 -2.79822,2.87473 z m 13.02242,7.08396 0.34454,1.39632 2.55446,2.74868 3.41237,3.48626 -5.72029,5.96078 -0.80122,1.54552 0.9264,1.99694 1.63211,1.20801 2.48922,-0.92711 5.43666,-5.67664 5.66047,5.41858 1.71861,0.95418 2.07617,-0.71006 1.11262,-1.9952 -0.81273,-1.80529 -5.62516,-5.78325 5.85077,-6.05772 0.46048,-1.77766 -0.92948,-1.48523 -1.73263,-0.99211 -1.67959,0.47858 -6.09953,5.83142 -5.90074,-5.70941 -1.58476,-0.60059 -2.01717,0.76285 z m 25.87475,30.27001 1.67134,-1.31631 1.25828,-1.18369 3.03209,-3.31468 1.77504,-2.59157 -0.42006,-1.35474 -1.04782,-0.25901 -2.60362,2.9725 -2.26896,2.47583 -3.43479,2.82792 -1.64913,0.97093 -1.345,1.46407 0.42033,1.15792 0.90055,0.30958 2.32653,-1.14076 z m -32.03925,-22.4925 1.19467,-5.92364 3.24495,-5.04512 4.41725,-3.36125 7.67279,-1.80412 8.04884,2.12662 3.63404,2.98686 2.93008,3.95064 1.69429,7.39512 -1.43471,6.26094 -3.55133,5.2627 -4.34453,3.05221 -6.91809,1.57154 -5.69755,-1.07611 -5.93695,-3.62139 -4.30636,-7.22945 z m 0.84412,15.00375 5.656,4.32375 7.737,2.2425 2.93563,0 9.15759,-2.27935 6.40705,-5.05322 3.77518,-6.10068 1.50205,-7.5505 0,-1.76001 -0.65225,-4.09242 -1.53162,-3.99633 -4.31063,-5.96125 -6.27295,-4.32005 -8.07442,-1.87995 -9.16525,1.73153 -8.3295,6.16347 -3.35473,5.80725 -1.4604,7.72151 1.65948,8.50996 z m 3.7288,8.18 -0.28191,-1.51361 -2.32439,-1.33264 -3.17905,-2.50559 -2.66482,-2.95066 -2.72763,-2.84875 -0.91628,0.44506 -0.25784,1.16869 1.93224,2.88994 3.05801,3.27256 3.43277,2.71126 2.25371,1.27379 z"
       id="butialogo"
       style="fill:#ffffff;stroke:#000000;stroke-width:2"
       inkscape:connector-curvature="0"
       sodipodi:nodetypes="cccccccccccccccccccccccccccccccccccccccccccccccccccccccccccccccccccccccccccccccccccccccccccccccccccccccccccccccccccccc" />
  </g>
</svg>
